<mxfile host="app.diagrams.net" modified="2023-05-12T09:44:45.647Z" agent="Mozilla/5.0 (Windows NT 10.0; Win64; x64) AppleWebKit/537.36 (KHTML, like Gecko) Chrome/113.0.0.0 Safari/537.36" etag="ExIw-pEW_Ov2usKyxP_o" version="21.2.1" type="github">
  <diagram name="Page-1" id="oBdG1NOTMiQTZoEPVMs9">
    <mxGraphModel dx="2600" dy="2068" grid="1" gridSize="10" guides="1" tooltips="1" connect="1" arrows="1" fold="1" page="1" pageScale="1" pageWidth="850" pageHeight="1100" math="0" shadow="0">
      <root>
        <mxCell id="0" />
        <mxCell id="1" parent="0" />
        <mxCell id="fg0VpM2u-jpraNNpqIeJ-7" style="edgeStyle=orthogonalEdgeStyle;rounded=0;orthogonalLoop=1;jettySize=auto;html=1;entryX=0.5;entryY=0;entryDx=0;entryDy=0;" edge="1" parent="1" source="fg0VpM2u-jpraNNpqIeJ-1" target="fg0VpM2u-jpraNNpqIeJ-2">
          <mxGeometry relative="1" as="geometry" />
        </mxCell>
        <mxCell id="fg0VpM2u-jpraNNpqIeJ-8" style="edgeStyle=orthogonalEdgeStyle;rounded=0;orthogonalLoop=1;jettySize=auto;html=1;entryX=0.25;entryY=0;entryDx=0;entryDy=0;" edge="1" parent="1" source="fg0VpM2u-jpraNNpqIeJ-1" target="fg0VpM2u-jpraNNpqIeJ-3">
          <mxGeometry relative="1" as="geometry">
            <Array as="points">
              <mxPoint x="280" y="210" />
            </Array>
          </mxGeometry>
        </mxCell>
        <mxCell id="fg0VpM2u-jpraNNpqIeJ-9" style="edgeStyle=orthogonalEdgeStyle;rounded=0;orthogonalLoop=1;jettySize=auto;html=1;" edge="1" parent="1" source="fg0VpM2u-jpraNNpqIeJ-1" target="fg0VpM2u-jpraNNpqIeJ-5">
          <mxGeometry relative="1" as="geometry" />
        </mxCell>
        <mxCell id="fg0VpM2u-jpraNNpqIeJ-10" style="edgeStyle=orthogonalEdgeStyle;rounded=0;orthogonalLoop=1;jettySize=auto;html=1;exitX=1;exitY=0.75;exitDx=0;exitDy=0;entryX=0.75;entryY=0;entryDx=0;entryDy=0;" edge="1" parent="1" source="fg0VpM2u-jpraNNpqIeJ-1" target="fg0VpM2u-jpraNNpqIeJ-4">
          <mxGeometry relative="1" as="geometry" />
        </mxCell>
        <mxCell id="fg0VpM2u-jpraNNpqIeJ-1" value="IFTM(Navigation Bar)" style="rounded=0;whiteSpace=wrap;html=1;" vertex="1" parent="1">
          <mxGeometry x="318" y="120" width="242" height="120" as="geometry" />
        </mxCell>
        <mxCell id="fg0VpM2u-jpraNNpqIeJ-17" style="edgeStyle=orthogonalEdgeStyle;rounded=0;orthogonalLoop=1;jettySize=auto;html=1;entryX=0.5;entryY=0;entryDx=0;entryDy=0;" edge="1" parent="1" source="fg0VpM2u-jpraNNpqIeJ-2" target="fg0VpM2u-jpraNNpqIeJ-12">
          <mxGeometry relative="1" as="geometry" />
        </mxCell>
        <mxCell id="fg0VpM2u-jpraNNpqIeJ-2" value="HomePage" style="rounded=0;whiteSpace=wrap;html=1;" vertex="1" parent="1">
          <mxGeometry x="-120" y="280" width="160" height="80" as="geometry" />
        </mxCell>
        <mxCell id="fg0VpM2u-jpraNNpqIeJ-3" value="NotFoundPage" style="rounded=0;whiteSpace=wrap;html=1;" vertex="1" parent="1">
          <mxGeometry x="240" y="280" width="160" height="80" as="geometry" />
        </mxCell>
        <mxCell id="fg0VpM2u-jpraNNpqIeJ-4" value="OrganizerPage" style="rounded=0;whiteSpace=wrap;html=1;" vertex="1" parent="1">
          <mxGeometry x="480" y="280" width="160" height="80" as="geometry" />
        </mxCell>
        <mxCell id="fg0VpM2u-jpraNNpqIeJ-25" style="edgeStyle=orthogonalEdgeStyle;rounded=0;orthogonalLoop=1;jettySize=auto;html=1;entryX=0.5;entryY=0;entryDx=0;entryDy=0;" edge="1" parent="1" source="fg0VpM2u-jpraNNpqIeJ-5" target="fg0VpM2u-jpraNNpqIeJ-21">
          <mxGeometry relative="1" as="geometry" />
        </mxCell>
        <mxCell id="fg0VpM2u-jpraNNpqIeJ-26" style="edgeStyle=orthogonalEdgeStyle;rounded=0;orthogonalLoop=1;jettySize=auto;html=1;entryX=0.5;entryY=0;entryDx=0;entryDy=0;" edge="1" parent="1" source="fg0VpM2u-jpraNNpqIeJ-5" target="fg0VpM2u-jpraNNpqIeJ-23">
          <mxGeometry relative="1" as="geometry" />
        </mxCell>
        <mxCell id="fg0VpM2u-jpraNNpqIeJ-27" style="edgeStyle=orthogonalEdgeStyle;rounded=0;orthogonalLoop=1;jettySize=auto;html=1;entryX=0.5;entryY=0;entryDx=0;entryDy=0;" edge="1" parent="1" source="fg0VpM2u-jpraNNpqIeJ-5" target="fg0VpM2u-jpraNNpqIeJ-22">
          <mxGeometry relative="1" as="geometry" />
        </mxCell>
        <mxCell id="fg0VpM2u-jpraNNpqIeJ-5" value="SearchPage&amp;nbsp;" style="rounded=0;whiteSpace=wrap;html=1;" vertex="1" parent="1">
          <mxGeometry x="840" y="280" width="160" height="80" as="geometry" />
        </mxCell>
        <mxCell id="fg0VpM2u-jpraNNpqIeJ-20" style="edgeStyle=orthogonalEdgeStyle;rounded=0;orthogonalLoop=1;jettySize=auto;html=1;entryX=0.5;entryY=0;entryDx=0;entryDy=0;endArrow=classic;endFill=1;" edge="1" parent="1" source="fg0VpM2u-jpraNNpqIeJ-12" target="fg0VpM2u-jpraNNpqIeJ-19">
          <mxGeometry relative="1" as="geometry" />
        </mxCell>
        <mxCell id="fg0VpM2u-jpraNNpqIeJ-12" value="TextModal" style="rounded=0;whiteSpace=wrap;html=1;" vertex="1" parent="1">
          <mxGeometry x="-120" y="400" width="160" height="80" as="geometry" />
        </mxCell>
        <mxCell id="fg0VpM2u-jpraNNpqIeJ-16" style="edgeStyle=orthogonalEdgeStyle;rounded=0;orthogonalLoop=1;jettySize=auto;html=1;" edge="1" parent="1" source="fg0VpM2u-jpraNNpqIeJ-15" target="fg0VpM2u-jpraNNpqIeJ-1">
          <mxGeometry relative="1" as="geometry" />
        </mxCell>
        <mxCell id="fg0VpM2u-jpraNNpqIeJ-15" value="IFTM" style="rounded=0;whiteSpace=wrap;html=1;" vertex="1" parent="1">
          <mxGeometry x="318" y="-40" width="242" height="120" as="geometry" />
        </mxCell>
        <mxCell id="fg0VpM2u-jpraNNpqIeJ-19" value="เป็น Modal ที่แสดงข้อมูลตัวอย่างบทความจากการ query มาจาก Database" style="rounded=0;whiteSpace=wrap;html=1;" vertex="1" parent="1">
          <mxGeometry x="-120" y="560" width="160" height="80" as="geometry" />
        </mxCell>
        <mxCell id="fg0VpM2u-jpraNNpqIeJ-31" style="edgeStyle=orthogonalEdgeStyle;rounded=0;orthogonalLoop=1;jettySize=auto;html=1;" edge="1" parent="1" source="fg0VpM2u-jpraNNpqIeJ-21" target="fg0VpM2u-jpraNNpqIeJ-28">
          <mxGeometry relative="1" as="geometry" />
        </mxCell>
        <mxCell id="fg0VpM2u-jpraNNpqIeJ-21" value="ExampleModal" style="rounded=0;whiteSpace=wrap;html=1;" vertex="1" parent="1">
          <mxGeometry x="640" y="400" width="160" height="80" as="geometry" />
        </mxCell>
        <mxCell id="fg0VpM2u-jpraNNpqIeJ-32" style="edgeStyle=orthogonalEdgeStyle;rounded=0;orthogonalLoop=1;jettySize=auto;html=1;entryX=0.5;entryY=0;entryDx=0;entryDy=0;" edge="1" parent="1" source="fg0VpM2u-jpraNNpqIeJ-22" target="fg0VpM2u-jpraNNpqIeJ-29">
          <mxGeometry relative="1" as="geometry" />
        </mxCell>
        <mxCell id="fg0VpM2u-jpraNNpqIeJ-22" value="CompareModal" style="rounded=0;whiteSpace=wrap;html=1;" vertex="1" parent="1">
          <mxGeometry x="840" y="400" width="160" height="80" as="geometry" />
        </mxCell>
        <mxCell id="fg0VpM2u-jpraNNpqIeJ-33" style="edgeStyle=orthogonalEdgeStyle;rounded=0;orthogonalLoop=1;jettySize=auto;html=1;" edge="1" parent="1" source="fg0VpM2u-jpraNNpqIeJ-23" target="fg0VpM2u-jpraNNpqIeJ-30">
          <mxGeometry relative="1" as="geometry" />
        </mxCell>
        <mxCell id="fg0VpM2u-jpraNNpqIeJ-23" value="ProgressBar&amp;nbsp;" style="rounded=0;whiteSpace=wrap;html=1;" vertex="1" parent="1">
          <mxGeometry x="1040" y="400" width="160" height="80" as="geometry" />
        </mxCell>
        <mxCell id="fg0VpM2u-jpraNNpqIeJ-28" value="เป็น Modal ที่แสดงข้อมูลตัวอย่างบทความจากการ สุ่ม query 1บทความต่อ1ผู้เขียน(109 บทความ) มาจาก Database" style="rounded=0;whiteSpace=wrap;html=1;" vertex="1" parent="1">
          <mxGeometry x="640" y="560" width="160" height="80" as="geometry" />
        </mxCell>
        <mxCell id="fg0VpM2u-jpraNNpqIeJ-29" value="เป็น Modal ที่เปรียบเทียบความแตกต่างของข้อมูลที่เป็น input กับบทความของเจ้าของใน Database" style="rounded=0;whiteSpace=wrap;html=1;" vertex="1" parent="1">
          <mxGeometry x="840" y="560" width="160" height="80" as="geometry" />
        </mxCell>
        <mxCell id="fg0VpM2u-jpraNNpqIeJ-30" value="แถบเปอร์เซนต์ความคล้าย" style="rounded=0;whiteSpace=wrap;html=1;" vertex="1" parent="1">
          <mxGeometry x="1040" y="560" width="160" height="80" as="geometry" />
        </mxCell>
      </root>
    </mxGraphModel>
  </diagram>
</mxfile>
